# xmcd
#
# Track frame offsets:
#	150
#	15495
#	30092
#	44220
#	58375
#	80777
#	97657
#	111482
#	135420
#	150732
#	165285
#	179400
#	193517
#	215882
#	232780
#	246595
#	281945
#
# Disc length: 3771 seconds
#
# Revision: 1
# Processed by: cddbd v1.5.2PL0 Copyright (c) Steve Scherf et al.
# Submitted via: audiograbber 1.83.01
#
DISCID=ee0eb911
DTITLE=Conway Twitty - SC2140
DYEAR=1900
DGENRE=Karaoke
TTITLE0=You've Never Been This Far Before
TTITLE1=Between Blue Eyes and Jeans
TTITLE2=Happy Birthday Darling
TTITLE3=Next In Line
TTITLE4=That's My Job
TTITLE5=I'd Love to Lay You Down
TTITLE6=I May Never Get to Heaven
TTITLE7=Red Neckin' Love Makin' Night
TTITLE8=You've Never Been This Far Before (Vocals)
TTITLE9=Between Blue Eyes and Jeans (Vocals)
TTITLE10=Happy Birthday Darling (Vocals)
TTITLE11=Next In Line (Vocals)
TTITLE12=That's My Job (Vocals)
TTITLE13=I'd Love to Lay You Down (Vocals)
TTITLE14=I May Never Get to Heaven (Vocals)
TTITLE15=Red Neckin' Love Makin' Night (Vocals)
TTITLE16=Data Track
EXTD=
EXTT0=
EXTT1=
EXTT2=
EXTT3=
EXTT4=
EXTT5=
EXTT6=
EXTT7=
EXTT8=
EXTT9=
EXTT10=
EXTT11=
EXTT12=
EXTT13=
EXTT14=
EXTT15=
EXTT16=
PLAYORDER=
